<?xml version="1.0" encoding="UTF-8"?><svg xmlns="http://www.w3.org/2000/svg" xmlns:xlink="http://www.w3.org/1999/xlink" contentScriptType="text/ecmascript" width="1190.25" zoomAndPan="magnify" contentStyleType="text/css" viewBox="0 0 1190.25 1683.749945" height="1683.749945" preserveAspectRatio="xMidYMid meet" version="1.0"><defs><clipPath id="clip-0"><path d="M 99.320312 346.289062 L 1090.609375 346.289062 L 1090.609375 1337.578125 L 99.320312 1337.578125 Z M 99.320312 346.289062 " clip-rule="nonzero"/></clipPath></defs><g clip-path="url(#clip-0)"><path fill="rgb(100%, 100%, 100%)" d="M 884.09375 346.289062 L 305.839844 346.289062 C 191.800781 346.289062 99.320312 438.765625 99.320312 552.804688 L 99.320312 1131.058594 C 99.320312 1245.097656 191.800781 1337.578125 305.839844 1337.578125 L 884.09375 1337.578125 C 998.171875 1337.578125 1090.609375 1245.097656 1090.609375 1131.058594 L 1090.609375 552.804688 C 1090.609375 438.765625 998.171875 346.289062 884.09375 346.289062 Z M 699.628906 1155.429688 C 682.902344 1158.652344 677.574219 1148.367188 677.574219 1139.566406 L 677.574219 1048.90625 C 677.574219 1018.050781 666.75 997.980469 654.855469 987.734375 C 728.460938 979.558594 805.78125 951.59375 805.78125 824.710938 C 805.78125 788.609375 792.894531 759.117188 771.789062 736.03125 C 775.175781 727.6875 786.492188 694.066406 768.523438 648.589844 C 768.523438 648.589844 740.808594 639.710938 677.738281 682.460938 C 651.304688 675.023438 623.050781 671.429688 594.964844 671.265625 C 566.878906 671.390625 538.628906 675.023438 512.234375 682.375 C 449.121094 639.628906 421.367188 648.507812 421.367188 648.507812 C 403.441406 694.023438 414.757812 727.605469 418.183594 735.988281 C 397.039062 759.117188 384.152344 788.570312 384.152344 824.667969 C 384.152344 951.222656 461.265625 979.597656 534.703125 987.984375 C 525.246094 996.242188 516.695312 1010.78125 513.722656 1032.179688 C 494.84375 1040.605469 447.058594 1055.183594 417.566406 1004.671875 C 417.566406 1004.671875 400.09375 972.949219 366.886719 970.59375 C 366.886719 970.59375 334.667969 970.179688 364.613281 990.710938 C 364.613281 990.710938 386.300781 1000.871094 401.332031 1039.035156 C 401.332031 1039.035156 420.457031 1098.015625 512.359375 1078.027344 L 512.359375 1139.527344 C 512.359375 1148.242188 507.03125 1158.484375 490.550781 1155.429688 C 359.203125 1111.769531 264.535156 987.902344 264.535156 841.933594 C 264.535156 659.410156 412.484375 511.503906 594.964844 511.503906 C 777.445312 511.503906 925.394531 659.410156 925.394531 841.933594 C 925.394531 987.859375 830.851562 1111.6875 699.628906 1155.429688 Z M 699.628906 1155.429688 " fill-opacity="1" fill-rule="nonzero"/></g></svg>