<?xml version="1.0" encoding="UTF-8"?><svg xmlns="http://www.w3.org/2000/svg" xmlns:xlink="http://www.w3.org/1999/xlink" contentScriptType="text/ecmascript" width="810" zoomAndPan="magnify" contentStyleType="text/css" viewBox="0 0 810 809.999993" height="809.999993" preserveAspectRatio="xMidYMid meet" version="1.0"><defs><clipPath id="clip-0"><path d="M 0 0 L 810 0 L 810 809.25 L 0 809.25 Z M 0 0 " clip-rule="nonzero"/></clipPath><clipPath id="clip-1"><path d="M 54 347 L 759 347 L 759 809.25 L 54 809.25 Z M 54 347 " clip-rule="nonzero"/></clipPath></defs><g clip-path="url(#clip-0)"><path fill="rgb(92.549133%, 21.958923%, 23.139954%)" d="M 809.425781 404.605469 C 809.425781 628.046875 628.347656 809.183594 404.980469 809.183594 C 181.605469 809.183594 0.535156 628.046875 0.535156 404.605469 C 0.535156 181.15625 181.605469 0.0273438 404.980469 0.0273438 C 628.347656 0.0273438 809.425781 181.15625 809.425781 404.605469 " fill-opacity="1" fill-rule="nonzero"/></g><path fill="rgb(14.509583%, 18.03894%, 31.759644%)" d="M 532.90625 140.273438 C 533.355469 141.957031 533.808594 143.644531 534.234375 145.320312 C 533.808594 143.632812 533.355469 141.964844 532.90625 140.273438 " fill-opacity="1" fill-rule="nonzero"/><path fill="rgb(14.509583%, 18.03894%, 31.759644%)" d="M 398.265625 16.335938 C 399.371094 16.175781 400.476562 16.03125 401.601562 16.015625 C 400.476562 16.03125 399.371094 16.175781 398.265625 16.335938 " fill-opacity="1" fill-rule="nonzero"/><path fill="rgb(14.509583%, 18.03894%, 31.759644%)" d="M 270.703125 350.167969 C 267.820312 347.300781 264.226562 343.535156 260.507812 339.101562 C 264.226562 343.535156 267.820312 347.300781 270.703125 350.167969 " fill-opacity="1" fill-rule="nonzero"/><path fill="rgb(14.509583%, 18.03894%, 31.759644%)" d="M 525.832031 118.75 C 526.34375 119.964844 526.769531 121.191406 527.238281 122.417969 C 526.769531 121.191406 526.34375 119.964844 525.832031 118.75 " fill-opacity="1" fill-rule="nonzero"/><path fill="rgb(14.509583%, 18.03894%, 31.759644%)" d="M 529.730469 129.433594 C 530.207031 130.90625 530.652344 132.371094 531.085938 133.84375 C 530.652344 132.371094 530.207031 130.90625 529.730469 129.433594 " fill-opacity="1" fill-rule="nonzero"/><path fill="rgb(14.509583%, 18.03894%, 31.759644%)" d="M 369.601562 36.3125 C 370.109375 35.910156 370.613281 35.503906 371.125 35.09375 C 370.613281 35.503906 370.109375 35.910156 369.601562 36.3125 " fill-opacity="1" fill-rule="nonzero"/><path fill="rgb(14.509583%, 18.03894%, 31.759644%)" d="M 393.753906 17.460938 C 394.816406 17.085938 395.890625 16.722656 396.980469 16.5 C 395.890625 16.722656 394.816406 17.085938 393.753906 17.460938 " fill-opacity="1" fill-rule="nonzero"/><path fill="rgb(14.509583%, 18.03894%, 31.759644%)" d="M 384.007812 23.667969 C 385.355469 22.332031 386.730469 21.199219 388.136719 20.238281 C 386.730469 21.199219 385.355469 22.332031 384.007812 23.667969 " fill-opacity="1" fill-rule="nonzero"/><path fill="rgb(14.509583%, 18.03894%, 31.759644%)" d="M 376.886719 30.285156 C 377.21875 29.992188 377.558594 29.679688 377.890625 29.378906 C 377.558594 29.679688 377.21875 29.992188 376.886719 30.285156 " fill-opacity="1" fill-rule="nonzero"/><path fill="rgb(14.509583%, 18.03894%, 31.759644%)" d="M 389.320312 19.574219 C 390.359375 18.941406 391.394531 18.328125 392.46875 17.878906 C 391.40625 18.328125 390.359375 18.941406 389.320312 19.574219 " fill-opacity="1" fill-rule="nonzero"/><path fill="rgb(14.509583%, 18.03894%, 31.759644%)" d="M 512.941406 95.976562 C 513.578125 96.859375 514.199219 97.753906 514.820312 98.648438 C 514.199219 97.753906 513.578125 96.867188 512.941406 95.976562 " fill-opacity="1" fill-rule="nonzero"/><path fill="rgb(14.509583%, 18.03894%, 31.759644%)" d="M 555.1875 344.515625 C 554.371094 345.605469 553.570312 346.652344 552.8125 347.613281 C 553.578125 346.652344 554.371094 345.605469 555.1875 344.515625 " fill-opacity="1" fill-rule="nonzero"/><path fill="rgb(14.509583%, 18.03894%, 31.759644%)" d="M 557.765625 340.972656 C 557.128906 341.875 556.488281 342.753906 555.867188 343.59375 C 556.488281 342.753906 557.128906 341.875 557.765625 340.972656 " fill-opacity="1" fill-rule="nonzero"/><path fill="rgb(14.509583%, 18.03894%, 31.759644%)" d="M 281.800781 231.769531 C 320.074219 216.09375 373.429688 209.75 407.53125 209.75 C 452.632812 209.75 499.101562 209.75 531.894531 225.246094 C 535.441406 226.925781 538.914062 228.753906 542.292969 230.738281 C 568.472656 246.121094 581.546875 277.265625 574.386719 306.738281 C 579.070312 287.832031 579.511719 268.574219 572.898438 255.324219 C 565.605469 240.742188 566.820312 214.007812 551.246094 192.707031 C 542.234375 180.378906 538.855469 163.8125 534.496094 146.402344 C 519.390625 150.148438 502.140625 172.1875 482.710938 185.148438 C 458.113281 201.554688 488.164062 162.363281 500.667969 129.730469 C 507.035156 113.136719 504.171875 94.417969 499.832031 80.011719 C 483.3125 61.902344 463.789062 46.570312 452.003906 39.742188 C 439.007812 32.207031 419.515625 15.835938 401.847656 16.015625 C 397.023438 19.597656 393.746094 28.921875 389.761719 39.476562 C 383.738281 55.507812 399.789062 66.671875 410.886719 78.394531 C 421.984375 90.125 379.746094 76.691406 372.332031 56.199219 C 367.472656 42.773438 361.164062 43.667969 357.386719 45.878906 C 345.667969 55.226562 334.28125 65.777344 323.863281 85.246094 C 322.476562 87.851562 321.207031 90.578125 319.84375 93.214844 C 321.035156 105.066406 323.949219 118.382812 330.296875 130.523438 C 346.945312 162.363281 354.066406 173.816406 365.082031 178.113281 C 376.101562 182.414062 376.195312 195.601562 353.820312 189.011719 C 331.460938 182.414062 324.773438 147.492188 306.253906 164.042969 C 293.851562 175.117188 286.132812 183.085938 278.941406 187.898438 C 278.363281 189.496094 277.714844 191.125 277.15625 192.707031 C 265.027344 226.914062 244.609375 252.949219 239.757812 283.804688 C 243.765625 260.527344 259.777344 240.785156 281.800781 231.769531 " fill-opacity="1" fill-rule="nonzero"/><path fill="rgb(14.509583%, 18.03894%, 31.759644%)" d="M 560.53125 336.964844 C 559.886719 337.933594 559.238281 338.878906 558.601562 339.789062 C 559.246094 338.878906 559.886719 337.933594 560.53125 336.964844 " fill-opacity="1" fill-rule="nonzero"/><g clip-path="url(#clip-1)"><path fill="rgb(10.198975%, 11.369324%, 19.999695%)" d="M 711.378906 514.160156 C 688.296875 469.199219 671.292969 418.160156 639.707031 405.90625 C 608.125 393.65625 545.671875 356.1875 545.671875 356.1875 C 545.671875 356.1875 548.703125 352.875 552.796875 347.648438 C 550.5 350.007812 548.125 352.789062 545.671875 356.1875 C 525.117188 384.632812 479.96875 404.792969 451.722656 426.917969 C 423.480469 449.046875 414.972656 497.660156 414.972656 497.660156 C 414.972656 497.660156 402.828125 486.308594 376.101562 432.683594 C 349.378906 379.0625 277.15625 356.1875 277.15625 356.1875 C 277.15625 356.1875 276.5 355.632812 275.367188 354.605469 C 276.5 355.632812 277.15625 356.1875 277.15625 356.1875 C 277.15625 356.1875 257.050781 363.476562 243.078125 373.199219 C 229.101562 382.921875 193.886719 399.929688 168.378906 410.871094 C 142.863281 421.800781 127.074219 464.335938 111.277344 497.660156 C 99.8125 521.847656 73.046875 571.363281 54.015625 605.570312 C 123.765625 727.195312 254.753906 809.183594 404.980469 809.183594 C 556.933594 809.183594 689.242188 725.316406 758.359375 601.371094 C 740.765625 566.507812 718.621094 528.273438 711.378906 514.160156 " fill-opacity="1" fill-rule="nonzero"/></g><path fill="rgb(14.509583%, 18.03894%, 31.759644%)" d="M 566.378906 327.417969 C 565.640625 328.765625 564.871094 330.09375 564.089844 331.394531 C 564.871094 330.09375 565.640625 328.765625 566.378906 327.417969 " fill-opacity="1" fill-rule="nonzero"/><path fill="rgb(14.509583%, 18.03894%, 31.759644%)" d="M 570.769531 318.328125 C 570.34375 319.355469 569.902344 320.386719 569.425781 321.417969 C 569.902344 320.386719 570.34375 319.355469 570.769531 318.328125 " fill-opacity="1" fill-rule="nonzero"/><path fill="rgb(14.509583%, 18.03894%, 31.759644%)" d="M 568.675781 322.984375 C 568.183594 324.003906 567.65625 325.027344 567.121094 326.03125 C 567.65625 325.027344 568.183594 324.003906 568.675781 322.984375 " fill-opacity="1" fill-rule="nonzero"/><path fill="rgb(14.509583%, 18.03894%, 31.759644%)" d="M 563.929688 331.667969 C 563.070312 333.089844 562.191406 334.46875 561.308594 335.8125 C 562.191406 334.46875 563.070312 333.089844 563.929688 331.667969 " fill-opacity="1" fill-rule="nonzero"/><path fill="rgb(14.509583%, 18.03894%, 31.759644%)" d="M 572.898438 312.433594 C 572.464844 313.910156 571.9375 315.398438 571.359375 316.886719 C 571.9375 315.398438 572.464844 313.910156 572.898438 312.433594 " fill-opacity="1" fill-rule="nonzero"/><path fill="rgb(14.509583%, 18.03894%, 31.759644%)" d="M 504.496094 85.238281 C 505.21875 86.082031 505.933594 86.925781 506.640625 87.777344 C 505.933594 86.925781 505.230469 86.082031 504.496094 85.238281 " fill-opacity="1" fill-rule="nonzero"/><path fill="rgb(14.509583%, 18.03894%, 31.759644%)" d="M 253.070312 329.4375 C 250.652344 325.972656 248.335938 322.285156 246.304688 318.453125 C 248.335938 322.285156 250.652344 325.972656 253.070312 329.4375 " fill-opacity="1" fill-rule="nonzero"/><path fill="rgb(14.509583%, 18.03894%, 31.759644%)" d="M 282.679688 177.867188 C 284.40625 173.261719 286.066406 168.671875 287.886719 164.042969 C 286.066406 168.683594 284.40625 173.261719 282.679688 177.867188 " fill-opacity="1" fill-rule="nonzero"/><path fill="rgb(14.509583%, 18.03894%, 31.759644%)" d="M 357.429688 45.847656 C 359.761719 43.980469 362.109375 42.167969 364.46875 40.335938 C 362.109375 42.167969 359.761719 43.980469 357.429688 45.847656 " fill-opacity="1" fill-rule="nonzero"/><path fill="rgb(14.509583%, 18.03894%, 31.759644%)" d="M 289.316406 160.566406 C 293.894531 149.058594 298.808594 137.582031 303.945312 126.199219 C 298.808594 137.589844 293.894531 149.050781 289.316406 160.566406 " fill-opacity="1" fill-rule="nonzero"/><path fill="rgb(14.509583%, 18.03894%, 31.759644%)" d="M 260.507812 339.101562 C 258.03125 336.144531 255.496094 332.902344 253.070312 329.4375 C 255.496094 332.902344 258.03125 336.144531 260.507812 339.101562 " fill-opacity="1" fill-rule="nonzero"/><path fill="rgb(14.509583%, 18.03894%, 31.759644%)" d="M 309.097656 114.839844 C 311.234375 110.320312 313.472656 105.902344 315.683594 101.449219 C 313.460938 105.902344 311.234375 110.3125 309.097656 114.839844 " fill-opacity="1" fill-rule="nonzero"/><path fill="rgb(18.818665%, 23.139954%, 39.99939%)" d="M 376.101562 432.683594 C 402.828125 486.308594 414.972656 497.660156 414.972656 497.660156 C 403.726562 484.804688 390.960938 448.945312 373.378906 415.433594 C 355.796875 381.914062 304.507812 364.011719 281.351562 349.199219 C 248.585938 328.238281 222.132812 274.464844 280.441406 239.429688 C 338.75 204.398438 491.636719 215.34375 526.148438 230.710938 C 569.121094 249.859375 581.09375 280.839844 561.742188 321.859375 C 542.394531 362.871094 488.164062 393.859375 450.589844 421.199219 C 413.023438 448.535156 414.972656 497.660156 414.972656 497.660156 C 414.972656 497.660156 423.480469 449.046875 451.722656 426.917969 C 479.96875 404.792969 525.117188 384.632812 545.671875 356.1875 C 548.125 352.789062 550.5 350.007812 552.796875 347.648438 C 552.796875 347.640625 552.8125 347.621094 552.8125 347.613281 C 553.570312 346.652344 554.371094 345.605469 555.1875 344.515625 C 555.410156 344.21875 555.640625 343.902344 555.867188 343.59375 C 556.488281 342.753906 557.128906 341.875 557.765625 340.972656 C 558.046875 340.582031 558.320312 340.199219 558.601562 339.789062 C 559.238281 338.878906 559.886719 337.933594 560.53125 336.964844 C 560.789062 336.582031 561.042969 336.214844 561.308594 335.8125 C 562.191406 334.46875 563.070312 333.089844 563.929688 331.667969 C 563.980469 331.582031 564.039062 331.488281 564.089844 331.394531 C 564.871094 330.09375 565.640625 328.765625 566.378906 327.417969 C 566.632812 326.960938 566.871094 326.5 567.121094 326.03125 C 567.65625 325.027344 568.183594 324.003906 568.675781 322.984375 C 568.933594 322.464844 569.179688 321.945312 569.425781 321.417969 C 569.902344 320.386719 570.34375 319.355469 570.769531 318.328125 C 570.964844 317.851562 571.171875 317.375 571.359375 316.886719 C 571.9375 315.398438 572.464844 313.910156 572.898438 312.433594 C 573.402344 310.734375 573.859375 309.011719 574.292969 307.292969 C 574.34375 307.105469 574.34375 306.917969 574.386719 306.738281 C 581.546875 277.265625 568.472656 246.121094 542.292969 230.738281 C 538.914062 228.753906 535.441406 226.925781 531.894531 225.246094 C 499.101562 209.75 452.632812 209.75 407.53125 209.75 C 373.429688 209.75 320.074219 216.09375 281.800781 231.769531 C 259.777344 240.785156 243.765625 260.527344 239.757812 283.804688 C 239.527344 285.113281 239.1875 286.390625 239.042969 287.730469 C 239.027344 287.863281 239.007812 288 239 288.136719 C 237.910156 298.386719 241.230469 308.875 246.304688 318.453125 C 248.335938 322.285156 250.652344 325.972656 253.070312 329.4375 C 255.496094 332.902344 258.03125 336.144531 260.507812 339.101562 C 264.226562 343.535156 267.820312 347.300781 270.703125 350.167969 C 274.550781 353.980469 277.15625 356.1875 277.15625 356.1875 C 277.15625 356.1875 349.378906 379.0625 376.101562 432.683594 " fill-opacity="1" fill-rule="nonzero"/><path fill="rgb(8.628845%, 10.198975%, 13.328552%)" d="M 450.589844 421.199219 C 488.164062 393.859375 542.394531 362.871094 561.742188 321.859375 C 581.09375 280.839844 569.121094 249.859375 526.148438 230.710938 C 491.636719 215.34375 338.75 204.398438 280.441406 239.429688 C 222.132812 274.464844 248.585938 328.238281 281.351562 349.199219 C 304.507812 364.011719 355.796875 381.914062 373.378906 415.433594 C 390.960938 448.945312 403.726562 484.804688 414.972656 497.660156 C 414.972656 497.660156 413.023438 448.535156 450.589844 421.199219 " fill-opacity="1" fill-rule="nonzero"/><path fill="rgb(13.328552%, 14.898682%, 26.269531%)" d="M 500.667969 129.730469 C 488.164062 162.363281 458.113281 201.554688 482.710938 185.148438 C 502.140625 172.1875 519.390625 150.148438 534.496094 146.402344 L 534.515625 146.394531 C 534.429688 146.035156 534.320312 145.679688 534.234375 145.320312 C 533.808594 143.644531 533.355469 141.957031 532.90625 140.273438 C 532.335938 138.125 531.722656 135.988281 531.085938 133.84375 C 530.652344 132.371094 530.207031 130.90625 529.730469 129.433594 C 528.984375 127.082031 528.113281 124.75 527.238281 122.417969 C 526.769531 121.191406 526.34375 119.964844 525.832031 118.75 C 524.378906 115.234375 522.769531 111.734375 520.890625 108.320312 C 519.109375 105.085938 517.015625 101.859375 514.820312 98.648438 C 514.199219 97.753906 513.578125 96.859375 512.941406 95.976562 C 510.941406 93.214844 508.855469 90.476562 506.640625 87.777344 C 505.933594 86.925781 505.21875 86.082031 504.496094 85.238281 C 502.957031 83.425781 501.398438 81.613281 499.78125 79.851562 C 499.800781 79.902344 499.816406 79.960938 499.832031 80.011719 C 504.171875 94.417969 507.035156 113.136719 500.667969 129.730469 " fill-opacity="1" fill-rule="nonzero"/><path fill="rgb(13.328552%, 14.898682%, 26.269531%)" d="M 353.820312 189.011719 C 376.195312 195.601562 376.101562 182.414062 365.082031 178.113281 C 354.066406 173.816406 346.945312 162.363281 330.296875 130.523438 C 323.949219 118.382812 321.035156 105.066406 319.84375 93.214844 C 319.835938 93.15625 319.828125 93.105469 319.820312 93.046875 C 318.398438 95.796875 317.070312 98.65625 315.683594 101.449219 C 313.472656 105.902344 311.234375 110.320312 309.097656 114.839844 C 307.324219 118.597656 305.65625 122.402344 303.945312 126.199219 C 298.808594 137.582031 293.894531 149.058594 289.316406 160.566406 C 288.859375 161.726562 288.347656 162.882812 287.886719 164.042969 C 286.066406 168.671875 284.40625 173.261719 282.679688 177.867188 C 281.425781 181.230469 280.089844 184.609375 278.882812 187.941406 C 278.898438 187.929688 278.925781 187.914062 278.941406 187.898438 C 286.132812 183.085938 293.851562 175.117188 306.253906 164.042969 C 324.773438 147.492188 331.460938 182.414062 353.820312 189.011719 " fill-opacity="1" fill-rule="nonzero"/><path fill="rgb(13.328552%, 14.898682%, 26.269531%)" d="M 372.332031 56.199219 C 379.746094 76.691406 421.984375 90.125 410.886719 78.394531 C 399.789062 66.671875 383.738281 55.507812 389.761719 39.476562 C 393.746094 28.921875 397.023438 19.597656 401.847656 16.015625 C 401.863281 16.003906 401.882812 15.988281 401.890625 15.980469 C 401.796875 15.988281 401.703125 16.003906 401.601562 16.015625 C 400.476562 16.03125 399.371094 16.175781 398.265625 16.335938 C 397.832031 16.398438 397.40625 16.414062 396.980469 16.5 C 395.890625 16.722656 394.816406 17.085938 393.753906 17.460938 C 393.328125 17.613281 392.894531 17.699219 392.46875 17.878906 C 391.394531 18.328125 390.359375 18.941406 389.320312 19.574219 C 388.929688 19.8125 388.519531 19.972656 388.136719 20.238281 C 386.730469 21.199219 385.355469 22.332031 384.007812 23.667969 C 381.976562 25.703125 379.933594 27.574219 377.890625 29.378906 C 377.558594 29.679688 377.21875 29.992188 376.886719 30.285156 C 374.960938 31.953125 373.039062 33.542969 371.125 35.09375 C 370.613281 35.503906 370.109375 35.910156 369.601562 36.3125 C 367.890625 37.671875 366.171875 39.007812 364.46875 40.335938 C 362.109375 42.167969 359.761719 43.980469 357.429688 45.847656 C 357.414062 45.863281 357.394531 45.871094 357.386719 45.878906 C 361.164062 43.667969 367.472656 42.773438 372.332031 56.199219 " fill-opacity="1" fill-rule="nonzero"/><path stroke-linecap="round" transform="matrix(0.217878, 0, 0, -0.21795, -243.513411, 1053.310983)" fill="none" stroke-linejoin="round" d="M 2742.818157 4609.950126 L 2742.818157 4609.950126 " stroke="rgb(13.328552%, 14.898682%, 26.269531%)" stroke-width="1.2" stroke-opacity="1" stroke-miterlimit="4"/><path fill="rgb(98.81897%, 86.669922%, 78.039551%)" d="M 543.527344 255.871094 C 542.871094 255.035156 542.167969 254.492188 541.476562 253.820312 C 538.011719 251.808594 534.183594 249.929688 530.105469 248.132812 C 524.675781 247.519531 520.445312 249.265625 520.445312 249.265625 C 520.777344 247.714844 521.007812 246.222656 521.28125 244.71875 C 484.316406 233.300781 369.464844 225.84375 304.226562 244.894531 C 304.484375 246.351562 304.703125 247.773438 305.019531 249.265625 C 305.019531 249.265625 300.023438 247.109375 293.878906 248.300781 C 291.828125 249.058594 289.863281 249.859375 287.957031 250.6875 C 285.902344 251.894531 283.863281 253.460938 281.9375 255.871094 C 272.046875 268.25 285.242188 271.550781 288.535156 282.289062 C 291.828125 293.015625 298.421875 307.054688 313.8125 307.054688 C 313.8125 307.054688 350.664062 397.742188 412.734375 397.742188 C 474.800781 397.742188 511.65625 307.054688 511.65625 307.054688 C 527.042969 307.054688 533.636719 293.015625 536.933594 282.289062 C 540.234375 271.550781 553.417969 268.25 543.527344 255.871094 " fill-opacity="1" fill-rule="nonzero"/><path fill="rgb(8.628845%, 10.198975%, 13.328552%)" d="M 510.164062 258.230469 C 507.96875 276.03125 496.539062 282.953125 474.855469 284.46875 C 453.167969 285.984375 436.136719 277.15625 433.074219 265.039062 C 428.511719 246.957031 448.136719 241.636719 469.824219 240.121094 C 491.507812 238.605469 512.113281 242.417969 510.164062 258.230469 Z M 391.550781 264.570312 C 388.179688 276.824219 371.0625 285.957031 349.414062 284.648438 C 327.753906 283.34375 316.441406 276.464844 314.570312 258.476562 C 312.910156 242.519531 333.582031 238.441406 355.242188 239.753906 C 376.902344 241.066406 396.382812 246.957031 391.550781 264.570312 Z M 527.757812 237.125 C 514.761719 235.25 501.789062 234.289062 489.152344 234.289062 C 449.277344 234.289062 427.167969 243.398438 426.257812 243.78125 C 418.792969 246.914062 413.253906 246.597656 412.765625 246.574219 L 411.738281 246.394531 L 411.398438 246.582031 C 409.789062 246.617188 404.808594 246.460938 398.417969 243.78125 C 397.507812 243.398438 375.394531 234.289062 335.523438 234.289062 C 322.890625 234.289062 309.894531 235.25 296.910156 237.125 L 294.941406 237.402344 C 294.941406 237.402344 305.496094 248.777344 306.746094 259.371094 C 308.03125 270.242188 313.429688 285.046875 345.265625 288 C 368.988281 290.1875 388.835938 283.8125 396.628906 271.730469 C 398.230469 269.246094 399.394531 266.726562 400.441406 264.484375 C 401.875 261.429688 403.21875 258.535156 404.9375 257.539062 C 407.429688 256.109375 410.921875 256 412.078125 256 L 413.191406 256.007812 C 414.5625 256.039062 417.542969 256.277344 419.738281 257.539062 C 421.464844 258.535156 422.808594 261.429688 424.230469 264.496094 C 425.277344 266.726562 426.445312 269.246094 428.042969 271.730469 C 434.792969 282.195312 450.511719 288.445312 470.0625 288.445312 C 473.09375 288.445312 476.242188 288.289062 479.414062 288 C 511.238281 285.046875 516.640625 270.242188 517.925781 259.371094 C 519.179688 248.777344 529.730469 237.402344 529.730469 237.402344 L 527.757812 237.125 " fill-opacity="1" fill-rule="nonzero"/><path fill="rgb(72.549438%, 71.759033%, 71.369934%)" d="M 121.464844 426.101562 C 121.867188 425.402344 122.335938 424.765625 122.800781 424.117188 C 122.335938 424.765625 121.875 425.402344 121.464844 426.101562 " fill-opacity="1" fill-rule="nonzero"/><path fill="rgb(72.549438%, 71.759033%, 71.369934%)" d="M 133.101562 415.324219 C 133.441406 415.160156 133.765625 414.964844 134.113281 414.8125 C 133.765625 414.964844 133.449219 415.160156 133.101562 415.324219 " fill-opacity="1" fill-rule="nonzero"/><path fill="rgb(72.549438%, 71.759033%, 71.369934%)" d="M 124.148438 422.355469 C 124.625 421.777344 125.089844 421.199219 125.621094 420.671875 C 125.089844 421.199219 124.632812 421.777344 124.148438 422.355469 " fill-opacity="1" fill-rule="nonzero"/><path fill="rgb(72.549438%, 71.759033%, 71.369934%)" d="M 121.464844 426.101562 C 118.878906 430.5625 117.472656 435.773438 117.824219 441.332031 L 134.574219 705.410156 C 170.421875 737.6875 212.097656 763.558594 257.800781 781.4375 L 552.15625 781.4375 C 556.117188 779.886719 560.074219 778.347656 563.972656 776.679688 C 331.308594 749.410156 148.878906 605.859375 121.464844 426.101562 " fill-opacity="1" fill-rule="nonzero"/><path fill="rgb(72.549438%, 71.759033%, 71.369934%)" d="M 138.554688 413.363281 C 138.957031 413.273438 139.355469 413.203125 139.757812 413.125 C 139.355469 413.195312 138.957031 413.273438 138.554688 413.363281 " fill-opacity="1" fill-rule="nonzero"/><path fill="rgb(72.549438%, 71.759033%, 71.369934%)" d="M 128.582031 418.074219 C 129.058594 417.707031 129.570312 417.390625 130.0625 417.058594 C 129.558594 417.382812 129.066406 417.707031 128.582031 418.074219 " fill-opacity="1" fill-rule="nonzero"/><path fill="rgb(82.348633%, 81.959534%, 81.17981%)" d="M 406.382812 641.804688 C 384.289062 641.804688 366.375 623.882812 366.375 601.773438 C 366.375 579.664062 384.289062 561.742188 406.382812 561.742188 C 428.488281 561.742188 446.402344 579.664062 446.402344 601.773438 C 446.402344 623.882812 428.488281 641.804688 406.382812 641.804688 Z M 691.898438 435.628906 C 689.984375 422.679688 678.808594 412.589844 665.164062 412.589844 L 144.792969 412.589844 C 143.066406 412.589844 141.390625 412.8125 139.757812 413.125 C 139.355469 413.203125 138.957031 413.273438 138.554688 413.363281 C 137.023438 413.730469 135.527344 414.199219 134.113281 414.8125 C 133.765625 414.964844 133.441406 415.160156 133.101562 415.324219 C 132.046875 415.84375 131.03125 416.414062 130.0625 417.058594 C 129.570312 417.390625 129.058594 417.707031 128.582031 418.074219 C 127.535156 418.863281 126.539062 419.726562 125.621094 420.671875 C 125.089844 421.199219 124.625 421.777344 124.148438 422.355469 C 123.671875 422.925781 123.21875 423.503906 122.800781 424.117188 C 122.335938 424.765625 121.867188 425.402344 121.464844 426.101562 C 148.878906 605.859375 331.308594 749.410156 563.972656 776.679688 C 605.0625 759.089844 642.636719 734.882812 675.386719 705.410156 L 692.136719 441.332031 C 692.253906 439.390625 692.167969 437.476562 691.898438 435.628906 " fill-opacity="1" fill-rule="nonzero"/><path fill="rgb(44.309998%, 43.528748%, 43.139648%)" d="M 370.75 807.632812 L 439.210938 807.632812 C 478.761719 804.324219 516.667969 795.316406 552.15625 781.4375 L 257.800781 781.4375 C 293.292969 795.316406 331.199219 804.324219 370.75 807.632812 " fill-opacity="1" fill-rule="nonzero"/><path fill="rgb(100%, 100%, 100%)" d="M 406.382812 561.742188 C 384.289062 561.742188 366.375 579.664062 366.375 601.773438 C 366.375 623.882812 384.289062 641.804688 406.382812 641.804688 C 428.488281 641.804688 446.402344 623.882812 446.402344 601.773438 C 446.402344 579.664062 428.488281 561.742188 406.382812 561.742188 " fill-opacity="1" fill-rule="nonzero"/></svg>