<?xml version="1.0" encoding="UTF-8"?><svg xmlns="http://www.w3.org/2000/svg" xmlns:xlink="http://www.w3.org/1999/xlink" contentScriptType="text/ecmascript" width="1190.25" zoomAndPan="magnify" contentStyleType="text/css" viewBox="0 0 1190.25 1683.749945" height="1683.749945" preserveAspectRatio="xMidYMid meet" version="1.0"><defs><clipPath id="clip-0"><path d="M 99.320312 346.289062 L 1090.609375 346.289062 L 1090.609375 1337.578125 L 99.320312 1337.578125 Z M 99.320312 346.289062 " clip-rule="nonzero"/></clipPath></defs><g clip-path="url(#clip-0)"><path fill="rgb(5.488586%, 46.269226%, 65.879822%)" d="M 884.09375 346.289062 L 305.839844 346.289062 C 191.800781 346.289062 99.320312 438.765625 99.320312 552.804688 L 99.320312 1131.058594 C 99.320312 1245.097656 191.800781 1337.578125 305.839844 1337.578125 L 884.09375 1337.578125 C 998.171875 1337.578125 1090.609375 1245.097656 1090.609375 1131.058594 L 1090.609375 552.804688 C 1090.609375 438.765625 998.171875 346.289062 884.09375 346.289062 Z M 429.75 1131.058594 L 305.839844 1131.058594 L 305.839844 676.71875 L 429.75 676.71875 Z M 367.792969 624.34375 C 327.894531 624.34375 295.511719 591.714844 295.511719 551.484375 C 295.511719 511.253906 327.894531 478.625 367.792969 478.625 C 407.695312 478.625 440.078125 511.253906 440.078125 551.484375 C 440.078125 591.714844 407.734375 624.34375 367.792969 624.34375 Z M 925.394531 1131.058594 L 801.484375 1131.058594 L 801.484375 899.59375 C 801.484375 760.480469 636.269531 771.015625 636.269531 899.59375 L 636.269531 1131.058594 L 512.359375 1131.058594 L 512.359375 676.71875 L 636.269531 676.71875 L 636.269531 749.621094 C 693.929688 642.808594 925.394531 634.917969 925.394531 851.886719 Z M 925.394531 1131.058594 " fill-opacity="1" fill-rule="nonzero"/></g></svg>