<?xml version="1.0" encoding="UTF-8"?><svg xmlns="http://www.w3.org/2000/svg" xmlns:xlink="http://www.w3.org/1999/xlink" contentScriptType="text/ecmascript" width="1190.25" zoomAndPan="magnify" contentStyleType="text/css" viewBox="0 0 1190.25 1683.749945" height="1683.749945" preserveAspectRatio="xMidYMid meet" version="1.0"><defs><clipPath id="clip-0"><path d="M 99.320312 346.289062 L 1090.609375 346.289062 L 1090.609375 1337.578125 L 99.320312 1337.578125 Z M 99.320312 346.289062 " clip-rule="nonzero"/></clipPath></defs><g clip-path="url(#clip-0)"><path fill="rgb(11.369324%, 63.139343%, 94.898987%)" d="M 884.09375 346.289062 L 305.839844 346.289062 C 191.800781 346.289062 99.320312 438.765625 99.320312 552.804688 L 99.320312 1131.058594 C 99.320312 1245.097656 191.800781 1337.578125 305.839844 1337.578125 L 884.09375 1337.578125 C 998.171875 1337.578125 1090.609375 1245.097656 1090.609375 1131.058594 L 1090.609375 552.804688 C 1090.609375 438.765625 998.171875 346.289062 884.09375 346.289062 Z M 878.351562 727.8125 C 886.984375 918.511719 744.773438 1131.140625 492.988281 1131.140625 C 416.410156 1131.140625 345.160156 1108.714844 285.144531 1070.21875 C 357.097656 1078.6875 428.882812 1058.738281 485.882812 1014.085938 C 426.527344 1012.972656 376.46875 973.773438 359.246094 919.914062 C 380.515625 923.960938 401.417969 922.765625 420.457031 917.601562 C 355.238281 904.507812 310.257812 845.773438 311.703125 782.953125 C 329.960938 793.113281 350.902344 799.226562 373.082031 799.925781 C 312.738281 759.574219 295.636719 679.855469 331.117188 618.894531 C 397.988281 700.921875 497.902344 754.90625 610.578125 760.566406 C 590.792969 675.769531 655.1875 594.109375 742.710938 594.109375 C 781.660156 594.109375 816.933594 610.550781 841.632812 636.941406 C 872.527344 630.871094 901.5625 619.59375 927.792969 604.066406 C 917.632812 635.746094 896.152344 662.304688 868.191406 679.074219 C 895.617188 675.769531 921.761719 668.5 946.046875 657.71875 C 927.914062 684.8125 904.910156 708.6875 878.351562 727.8125 Z M 878.351562 727.8125 " fill-opacity="1" fill-rule="nonzero"/></g></svg>